<?xml version="1.0" standalone="no"?><!DOCTYPE svg PUBLIC "-//W3C//DTD SVG 1.1//EN" "http://www.w3.org/Graphics/SVG/1.1/DTD/svg11.dtd"><svg t="1680107148897" class="icon" viewBox="0 0 1024 1024" version="1.1" xmlns="http://www.w3.org/2000/svg" p-id="6404" xmlns:xlink="http://www.w3.org/1999/xlink" width="200" height="200"><path d="M672 877a8 8 0 0 0 8-8v-64h64a8 8 0 0 0 8-8v-64h128c17.673 0 32-14.327 32-32V179c0-17.673-14.327-32-32-32H144c-17.673 0-32 14.327-32 32v522c0 17.673 14.327 32 32 32h128v64a8 8 0 0 0 8 8h64v64a8 8 0 0 0 8 8h320z m-64-72H416v-72h-72v-72H184V219h656v442H680v72h-72v72z" fill="#1C6EFF" p-id="6405"></path><path d="M760 588a8 8 0 0 0 8-8V298a8 8 0 0 0-8-8H264a8 8 0 0 0-8 8v282a8 8 0 0 0 8 8h496z m-48-56H312V346h60v103a8 8 0 0 0 8 8h40a8 8 0 0 0 8-8V346h56v103a8 8 0 0 0 8 8h40a8 8 0 0 0 8-8V346h56v103a8 8 0 0 0 8 8h40a8 8 0 0 0 8-8V346h60v186z" fill="#44D7B6" p-id="6406"></path></svg>