<?xml version="1.0" standalone="no"?><!DOCTYPE svg PUBLIC "-//W3C//DTD SVG 1.1//EN" "http://www.w3.org/Graphics/SVG/1.1/DTD/svg11.dtd"><svg t="1683104320639" class="icon" viewBox="0 0 1024 1024" version="1.1" xmlns="http://www.w3.org/2000/svg" p-id="2640" xmlns:xlink="http://www.w3.org/1999/xlink" width="200" height="200"><path d="M944.58 391.8l-134.12-46c-38.56-13.2-67.08-41.84-76.28-76.62l-32-120.9c-23.16-87.54-153.14-114.26-220-45.24L390 198.48c-26.52 27.42-67.08 41.86-108.4 38.62l-143.8-11.24c-104-8.14-173.86 89.78-118 165.68l77.08 104.84c22.16 30.14 25.64 67.72 9.28 100.48l-56.86 114C8 793.34 94.92 880.58 196.22 858.46l140-30.56c40.22-8.78 82.9 0 114.14 23.46l108.64 81.66c78.64 59.12 202 15.14 208.9-74.44l9.4-123.72c2.7-35.6 25.6-67.74 61.26-86l124-63.48c89.68-45.92 79.1-160.34-17.98-193.58zM320 512a64 64 0 1 1 64-64 64 64 0 0 1-64 64z m256 192a64 64 0 1 1 64-64 64 64 0 0 1-64 64z m32-256a32 32 0 1 1 32-32 32 32 0 0 1-32 32z" p-id="2641" fill="#5db1f5"></path></svg>