<?xml version="1.0" standalone="no"?><!DOCTYPE svg PUBLIC "-//W3C//DTD SVG 1.1//EN" "http://www.w3.org/Graphics/SVG/1.1/DTD/svg11.dtd"><svg t="1743446147822" class="icon" viewBox="0 0 1024 1024" version="1.1" xmlns="http://www.w3.org/2000/svg" p-id="2089" xmlns:xlink="http://www.w3.org/1999/xlink" width="64" height="64"><path d="M541.03 167.271a81.357 81.357 0 0 1 48.009-15.206 111.445 111.445 0 0 1 58.027 17.6 148.479 148.479 0 0 1 38.639 33.911 185.147 185.147 0 0 1 20.241 31.437 299.216 299.216 0 0 0-47.684 67.516 674.661 674.661 0 0 0-56.969 156.075 250.879 250.879 0 0 0-101.547-113.84 196.975 196.975 0 0 0-21.436-10.479c-3.994-57.958 10.24-129.962 62.72-167.014z" fill="#FFFFFF" p-id="2090"></path><path d="M842.394 206.32a95.266 95.266 0 0 1 84 59.443 150.186 150.186 0 0 1 14.234 49.493c14.967 142.4-124.4 228.8-236.322 298.155l-4.642 2.884a127.587 127.587 0 0 1-22.187 11.128c-0.956-3.925-0.239-11.52-0.8-17.92s-2.56-11.605-8.96-10.24a33.792 33.792 0 0 0-9.848 5.837c-8.073 5.837-17.288 12.476-19.917 2.236a15.7 15.7 0 0 1-0.154-4.881c0.154-5.12 0.888-11.759-3.6-13.995-3.84-1.928-8.4 0.478-12.885 4.471v-4.471a219.4 219.4 0 0 0 1.707-28.245c0.478-5.12 0.717-10.479 1.434-15.684a642.955 642.955 0 0 1 67.036-224.957 263.518 263.518 0 0 1 29.832-45.6c4.557-5.683 9.438-11.127 14.558-16.4 4.8-4.881 9.677-9.591 14.882-13.995a147.064 147.064 0 0 1 87.945-37.41z" fill="#FFFFFF" p-id="2091"></path><path d="M983.603 711.936a125.788 125.788 0 0 1-12.408 40.567 295.819 295.819 0 0 0-45.192-112.64 162.915 162.915 0 0 0-47.445-44.373 143.129 143.129 0 0 1 31.915 6.639 105.164 105.164 0 0 1 73.131 109.807z" fill="#2F2F2F" p-id="2092"></path><path d="M678.229 803.772a25.8 25.8 0 0 0 9.609-0.648c7.2-2.953 10.479-6.485 8.533-13.927-1.522-5.512-7.356-12.168-5.922-17.835 2.714-10.632 27.6 4.164 29.764-11.844a18.055 18.055 0 0 0-1.6-9.438c-1.365-3.84-3.755-5.12-5.683-8.312-4.727-8 6.639-8.328 12.083-9.847s15.838-2.645 13.995-10.394c-1.434-5.683-10.718-11.947-14.967-15.36-3.516-2.953-6.076-4.966-6.724-7.356a309.493 309.493 0 0 1 30.328 29.525 119.009 119.009 0 0 1 18.995 34.475 189.7 189.7 0 0 1 20 88.559c0 3.84-0.393 7.441-0.563 11.127-45.52-1.278-91.054-19.693-107.848-58.725z" fill="#2F2F2F" p-id="2093"></path><path d="M858.231 786.091a259.755 259.755 0 0 0-65.6-115.678 265.834 265.834 0 0 0-42.671-39.594 187.434 187.434 0 0 1 38.878-21.675c83.439 38.724 124.16 123.443 123.529 211.285a227.351 227.351 0 0 1-45.124 25.6 227.945 227.945 0 0 0-9.011-59.938z" fill="#2F2F2F" p-id="2094"></path><path d="M453.427 490.889a33.536 33.536 0 0 1 18.159-1.434 44 44 0 0 1 24.969 14.882 56.933 56.933 0 0 1 10.393 17.835 54.121 54.121 0 0 1 3.123 16.794 47.547 47.547 0 0 1-7.526 29.013 35.55 35.55 0 0 1-16.726 13.931 43.845 43.845 0 0 1-53.436-31.283 46.08 46.08 0 0 1 21.044-59.738z" fill="#2F2F2F" p-id="2095"></path><path d="M277.828 642.083a46.08 46.08 0 0 1-47.684-41.762 43.537 43.537 0 0 1 31.436-53.368 45.653 45.653 0 0 1 47.445 41.677 43.537 43.537 0 0 1-31.2 53.453z" fill="#2F2F2F" p-id="2096"></path><path d="M373.76 711.031a63.146 63.146 0 0 1-34.236-11.042 26.2 26.2 0 0 1-11.366-34.132c9.353-14.473 25.6-10.087 37.444-2.321a26.42 26.42 0 0 0 19.524 5.12 50.005 50.005 0 0 0 44.083-29.765c2.714-8.312 7.834-15.206 16.964-14.712a21.555 21.555 0 0 1 19.678 12.562c20.224 50.381-58.402 72.943-92.091 74.29z" fill="#2F2F2F" p-id="2097"></path><path d="M1004.973 636.399c1.126-3.686 1.843-7.2 2.167-8.721 1.195-5.359 3.6-11.52 5.12-17.6a27.307 27.307 0 0 0 0.392-13.841c-1.843-6.827-6.553-5.837-12.646-5.837a163.374 163.374 0 0 0-18.773 1.195c-4.164 0.393-8.533-0.154-12.8 0.563a153.088 153.088 0 0 0-45.517-25.446 185.157 185.157 0 0 0-61.44-10.24c-2.8 0-5.513 0.324-8.243 0.393 75.093-61.116 135.765-139.2 124.587-245.606a185.5 185.5 0 0 0-17.681-61.764 130.577 130.577 0 0 0-123.2-80.555 179.542 179.542 0 0 0-102.4 40.072 240.409 240.409 0 0 0-19.678-29.013 186.743 186.743 0 0 0-48.248-42.325 133.205 133.205 0 0 0-147.2-1.041c-60.4 42.564-80.4 119.757-79.36 185.361a264.874 264.874 0 0 0-50.637-6.246q-5.393-24.115-11.281-47.991a164.556 164.556 0 0 0-53.111-91.6 202.9 202.9 0 0 0-67.925-33.6c-22.886-6.315-68.727-6.076-59.733 32.324 4.642 19.849 37.922 20.719 53.675 25.6 58.795 18.159 66.56 57.122 81.2 110.234a79.589 79.589 0 0 1 1.519 8.243c-1.041 0.154-2 0.239-3.038 0.393a294.266 294.266 0 0 0-86.716 28.314c-10.086-11.947-20-24-30.327-35.686a164.147 164.147 0 0 0-89.276-56.764 202.8 202.8 0 0 0-75.793 1.587c-23.279 4.881-63.846 26.163-38.076 56.166 13.278 15.36 43.2 0.956 59.443-1.929 60.484-10.8 85.333 20.156 122.88 60.553a67.741 67.741 0 0 1 5.274 6.724 208.752 208.752 0 0 0-20.719 19.524c-75.729 83.85-94.297 238.798-13.896 320.479a222.088 222.088 0 0 0 145.289 64.717 398.183 398.183 0 0 0 90.232-3.277 391.541 391.541 0 0 0 50.876-12.322c-15.036 15.36-32.154 35.84-51.439 38.246a375.176 375.176 0 0 1-43.435-0.717 108.443 108.443 0 0 0-33.758 1.195 19.524 19.524 0 0 0-10.479 23.893c3.038 12.083 12.885 14.882 24 15.6s22.955-1.911 34.406-1.707 23.04 2 34.56 1.365a91.378 91.378 0 0 0 19.763-5.444 53.811 53.811 0 0 0 16.964-8.533c6.827-4.881 13.449-10.564 19.849-16.077a291.473 291.473 0 0 0 29.525-29.286c2.475-2.952 5.12-5.444 7.834-8.158 3.277 4.471-3.123 12.715-6.076 18.244-6.076 11.52 4.233 11.759 13.124 10.957a17.376 17.376 0 0 0 1.911-0.563 308.455 308.455 0 0 1-32.43 33.838 141.173 141.173 0 0 1-24.166 17.766c-7.919 4.233-18.773 12.322-19.593 22.187a19.49 19.49 0 0 0 24.405 19.2 177.634 177.634 0 0 0 29.918-15.684 289.726 289.726 0 0 0 56.559-54.613 20.282 20.282 0 0 0 0.239 3.755c0.8 7.526 4.557 16.486 13.653 12.322 3.84-1.707 8.806-8.96 13.653-10.24 0 4.233 0.154 8.533 0.154 12.646 0 10.957-1.195 21.521-1.195 32.427v35.209a241.885 241.885 0 0 0-0.717 40.96 15.906 15.906 0 0 0 15.514 12.151 35.618 35.618 0 0 0 21.914-5.751c1.911-2.406 1.28-7.441 1.843-10.479a60.719 60.719 0 0 0 1.28-12.715q0.23-17.92 0.563-35.84c0.324-22.323 0.563-44.715-0.324-67.038 1.707 0 3.6 1.126 6.076 3.994 3.516 4.164 5.769 9.353 11.2 5.12 4.4-3.6 5.683-11.127 11.759-13.193a14.8 14.8 0 0 1 3.277-0.563c0 5.12 0.239 10.24 0.239 15.206 0 10.957-1.28 21.521-1.28 32.427v35.208a241.881 241.881 0 0 0-0.717 40.96 15.974 15.974 0 0 0 15.509 12.178 35.379 35.379 0 0 0 21.845-5.768c2-2.406 1.28-7.441 1.911-10.394a74.51 74.51 0 0 0 1.28-12.715c0.154-11.947 0.324-24 0.563-35.84 0.239-12.646 0.324-25.276 0.324-37.922a182.033 182.033 0 0 0 110.165 34.953c3.6 0 7.287-0.154 10.888-0.239 107.913-5.6 208.555-89.515 219.767-183.04a134.536 134.536 0 0 0-15.765-80.526z m-21.367 75.52a125.784 125.784 0 0 1-12.41 40.571 295.815 295.815 0 0 0-45.192-112.64 162.919 162.919 0 0 0-47.445-44.373 143.136 143.136 0 0 1 31.915 6.639 105.165 105.165 0 0 1 73.129 109.803zM541.048 167.29a81.357 81.357 0 0 1 47.992-15.206 111.445 111.445 0 0 1 58.027 17.6 148.48 148.48 0 0 1 38.638 33.906 185.123 185.123 0 0 1 20.241 31.437 299.211 299.211 0 0 0-47.684 67.516 674.642 674.642 0 0 0-56.969 156.072 250.88 250.88 0 0 0-101.6-113.834 196.983 196.983 0 0 0-21.436-10.479c-3.94-57.976 10.311-129.98 62.791-167.012z m301.363 39.049a95.266 95.266 0 0 1 84 59.443 150.186 150.186 0 0 1 14.234 49.493c14.967 142.4-124.4 228.8-236.322 298.155l-4.642 2.884a127.582 127.582 0 0 1-22.187 11.128c-0.956-3.925-0.239-11.52-0.8-17.92s-2.56-11.605-8.96-10.24a33.788 33.788 0 0 0-9.848 5.837c-8.072 5.834-17.288 12.471-19.913 2.232a15.7 15.7 0 0 1-0.154-4.881c0.154-5.12 0.887-11.759-3.6-13.995-3.84-1.911-8.4 0.478-12.885 4.489v-4.489a219.387 219.387 0 0 0 1.707-28.245c0.478-5.12 0.717-10.479 1.434-15.684a642.952 642.952 0 0 1 67.033-224.956 263.521 263.521 0 0 1 29.849-45.6c4.557-5.683 9.438-11.127 14.558-16.4 4.8-4.881 9.677-9.591 14.882-13.995a147.064 147.064 0 0 1 88-37.427zM678.247 803.84a25.8 25.8 0 0 0 9.609-0.648c7.2-2.953 10.479-6.485 8.533-13.926-1.519-5.513-7.356-12.151-5.922-17.835 2.714-10.633 27.6 4.164 29.764-11.844a18.056 18.056 0 0 0-1.6-9.438c-1.365-3.84-3.755-5.12-5.683-8.311-4.727-8 6.639-8.311 12.083-9.847s15.838-2.645 13.995-10.394c-1.434-5.683-10.718-11.947-14.967-15.36-3.516-2.953-6.076-4.966-6.724-7.356a309.492 309.492 0 0 1 30.327 29.525 119.026 119.026 0 0 1 19.046 34.406 189.7 189.7 0 0 1 20 88.559c0 3.84-0.392 7.441-0.563 11.128-45.588-1.298-91.105-19.696-107.898-58.659z m180-17.749a259.754 259.754 0 0 0-65.534-115.678 265.838 265.838 0 0 0-42.667-39.595 187.431 187.431 0 0 1 38.878-21.675c83.439 38.725 124.16 123.447 123.511 211.286a227.361 227.361 0 0 1-45.124 25.6 227.966 227.966 0 0 0-9.062-59.938z m-404.8-295.253a33.535 33.535 0 0 1 18.159-1.434 44 44 0 0 1 24.949 14.886 56.935 56.935 0 0 1 10.394 17.835 54.119 54.119 0 0 1 3.123 16.794 47.548 47.548 0 0 1-7.526 29.013 35.55 35.55 0 0 1-16.725 13.926 43.844 43.844 0 0 1-53.436-31.283 46.08 46.08 0 0 1 21.06-59.682z m-175.6 151.245a46.08 46.08 0 0 1-47.684-41.762 43.537 43.537 0 0 1 31.437-53.367 45.653 45.653 0 0 1 47.445 41.677 43.537 43.537 0 0 1-31.2 53.453z m95.915 68.966a63.146 63.146 0 0 1-34.236-11.042 26.2 26.2 0 0 1-11.366-34.133c9.353-14.473 25.6-10.086 37.444-2.321a26.419 26.419 0 0 0 19.524 5.12 50.005 50.005 0 0 0 44.066-29.713c2.714-8.311 7.834-15.206 16.964-14.711a21.555 21.555 0 0 1 19.678 12.561c20.241 50.313-58.385 72.875-92.075 74.24z" fill="#FCC21B" p-id="2098"></path></svg>